<?xml version="1.0" encoding="UTF-8"?>
<!DOCTYPE svg PUBLIC "-//W3C//DTD SVG 1.1//EN" "http://www.w3.org/Graphics/SVG/1.1/DTD/svg11.dtd">
<!-- Creator: CorelDRAW 2018 (64 Bit Versão de avaliação) -->
<svg xmlns="http://www.w3.org/2000/svg" xml:space="preserve" width="131.046mm" height="30.7022mm" version="1.1" style="shape-rendering:geometricPrecision; text-rendering:geometricPrecision; image-rendering:optimizeQuality; fill-rule:evenodd; clip-rule:evenodd"
viewBox="0 0 12700.35 2975.52"
 xmlns:xlink="http://www.w3.org/1999/xlink">
 <defs>
  <style type="text/css">
   <![CDATA[
    .fil0 {fill:#FEFEFE}
   ]]>
  </style>
 </defs>
 <g id="Camada_x0020_1">
  <metadata id="CorelCorpID_0Corel-Layer"/>
  <g id="_2654892970592">
   <path class="fil0" d="M4407.26 469.17l0 1014.73 845.62 0c0,-340.69 104.59,-263.08 -582.54,-263.08l0 -169.13 488.58 0c73.06,0 56.38,-48.2 56.38,-169.12 0,-156.19 -544.96,43.44 -544.96,-112.75l0 -93.96 582.54 0c0,-183.45 25.48,-263.08 -56.38,-263.08l-732.86 0c-43.3,0 -56.38,13.07 -56.38,56.38z"/>
   <path class="fil0" d="M4181.76 2555.01c6.05,-72.76 55.5,-162.1 82.19,-237.26 28.64,-80.66 70.01,-159.91 86.92,-232.52l131.54 338.24c-146.78,34.19 -188.69,72.29 -300.66,131.53zm-413.41 413.41c316.92,0 214.43,16.17 316.07,-116.13 87.56,-113.96 316.69,-218.21 491.96,-222.11 20.11,86.35 93.24,265.88 131.53,338.24l281.88 0c-9.2,-110.44 -314.26,-774.7 -380.85,-953.35 -55.68,-149.35 -5.51,-117.76 -408.39,-117.76 -83.08,0 -343.52,708.14 -386.46,816.19 -63.72,160.31 -145.5,254.92 -45.74,254.92z"/>
   <path class="fil0" d="M5290.46 2630.18c0,-242.55 137.24,-187.91 319.45,-187.91 0,140.77 40.15,314.93 -169.23,311.81 -60.44,-0.9 -150.22,-52.15 -150.22,-123.9zm319.45 -714.07l0 357.04c-156.96,-36.57 -107.61,-37.58 -281.87,-37.58 -440.94,0 -392.4,732.86 -37.58,732.86 272.75,0 177.52,-56.06 319.45,-93.96 2.51,112.51 -8.25,93.96 225.49,93.96 43.3,0 56.38,-13.07 56.38,-56.38l0 -1014.73c-108.73,0 -156.33,18.79 -281.87,18.79z"/>
   <path class="fil0" d="M5647.49 1108.07c0,-178.81 187.29,-150.34 281.87,-150.34 104.05,0 96.07,324.79 -129.68,314.24 -79.33,-3.71 -152.19,-75 -152.19,-163.9zm394.62 -676.49l-56.38 0 0 357.04c-114.65,-9.55 -81.9,-37.58 -281.87,-37.58 -265.29,0 -402.64,294 -295.59,539.86 73.34,168.44 243.47,246.58 427.86,175.07 68.38,-26.52 97.38,-59.85 149.6,-94.81l0 112.75 263.08 0 0 -1071.11c-95.27,0 -102.38,18.79 -206.7,18.79z"/>
   <path class="fil0" d="M10420.51 1295.99c-98.1,0 -24.02,6.56 -75.16,-18.79 3.41,-153.34 78.73,-61.05 300.66,-112.75 -23.87,89.4 -132.97,131.54 -225.5,131.54zm-319.45 -451c0,270.38 -45.45,112.74 451,112.74 57.34,0 75.83,18.06 112.75,37.58 -35.73,48.77 -57.45,63.07 -144.39,52.04 -101.66,-12.89 -83.1,-16.19 -194.52,3.41 -69.76,12.28 -118.47,21.52 -164.39,61.37 -145.96,126.68 -87.51,381.23 164.51,381.33 229.83,0.1 281.17,-101.93 357.58,-122.33 1.27,57.26 8.48,68.51 18.79,112.75 276.2,0 244.28,52 244.28,-263.08 0,-472.42 -288.84,-515.78 -695.93,-451.65 -66.97,10.54 -149.69,6.71 -149.69,75.82z"/>
   <path class="fil0" d="M8541.37 1295.99c-98.1,0 -24.02,6.56 -75.16,-18.79 3.41,-153.34 78.73,-61.05 300.66,-112.75 -23.88,89.4 -132.97,131.54 -225.5,131.54zm-319.45 -451c0,270.38 -45.45,112.74 451,112.74 57.34,0 75.83,18.06 112.75,37.58 -35.73,48.77 -57.45,63.07 -144.39,52.04 -101.66,-12.89 -83.1,-16.19 -194.53,3.41 -69.75,12.28 -118.46,21.52 -164.38,61.37 -145.96,126.68 -87.51,381.23 164.51,381.33 229.83,0.1 281.17,-101.93 357.58,-122.33 1.27,57.26 8.48,68.51 18.79,112.75 276.2,0 244.28,52 244.28,-263.08 0,-472.42 -288.84,-515.78 -695.93,-451.65 -66.98,10.54 -149.69,6.71 -149.69,75.82z"/>
   <path class="fil0" d="M12168.12 2780.51c-50.26,0 -55.58,-27.13 -75.17,-56.38 44.79,-66.9 28.2,-55.57 130.53,-57.38 99.68,-1.77 114.26,-11.57 188.93,-17.78 -50.47,75.38 -118.6,131.54 -244.28,131.54zm-300.66 -507.37l0 206.71c167.2,0 296.55,-76.67 544.95,-18.79l0 56.37c-134.32,0 -246.36,-4.91 -356.53,19.3 -319.39,70.19 -238.04,431.7 -19.3,431.7 284.25,0 214.61,-10.99 394.62,-131.53 12.85,154.41 37.86,131.53 206.71,131.53 89.73,0 56.38,-125.81 56.38,-357.04 0,-540.9 -624.76,-342.74 -826.82,-338.24z"/>
   <path class="fil0" d="M7263.56 2442.27l131.53 0c57.65,0 81.25,46.35 93.96,93.95l-319.45 0c12.71,-47.6 36.3,-93.95 93.96,-93.95zm-375.83 131.53c0,136.92 -3.14,202.11 136.15,314.85 119.01,96.33 329.43,79.77 483.97,79.77 107.7,0 134.39,-30 225.49,-37.58l0 -206.7c-136.3,11.34 -448.69,161.06 -563.74,-56.38l601.32 0c-9.18,-412.06 -281.06,-432.2 -526.15,-432.2 -184.6,0 -357.04,152.48 -357.04,338.24z"/>
   <path class="fil0" d="M11472.83 957.74l112.74 0c185.08,0 226.05,334.35 -56.37,334.35 -282.42,0 -241.46,-334.35 -56.38,-334.35zm-413.41 131.54c0,582.87 939.57,497.62 939.57,56.38 0,-346.1 -239.6,-394.62 -526.15,-394.62 -211.45,0 -413.41,128.53 -413.41,338.24z"/>
   <path class="fil0" d="M7902.46 2254.35l0 657.7c0,78.47 65.21,56.38 225.49,56.38 93.54,0 56.38,-269.25 56.38,-451 154.66,-81.83 160.41,-57.12 244.29,-37.57 102.28,439.05 -160.78,488.57 244.28,488.57 94.08,0 56.38,-160.13 56.38,-413.41 0,-412.49 -305.83,-366.83 -544.96,-206.7l0 -112.75c-108.73,0 -156.33,18.79 -281.87,18.79z"/>
   <g>
    <path class="fil0" d="M450.99 1597.27c37.24,-24.94 72.9,-47.75 116.36,-71.55 48.54,-26.58 90.27,-41.65 143.76,-62.95 252.72,-100.57 702.2,-188.37 975.44,-246 219.63,-46.31 731.49,-183.79 904.85,-316.59 95.69,-73.3 114.55,-131.81 114.55,-298.85 -91.18,33 -112.28,166.44 -263.08,206.7 -14.46,-62.06 -51.85,-135.26 -72.36,-190.72l-228.3 -617.31 -451 0 244.41 995.92c-125.85,2.84 -473.57,127.88 -639.03,131.56l286.29 -1126.38 -455.41 -1.1 -464.02 1227.22c-50.42,130.46 -30.04,80.38 -123.29,158.58 -74.1,62.15 -89.19,82.63 -89.19,211.47z"/>
    <path class="fil0" d="M2179.8 1916.72c0,120.44 70.85,339.71 101.49,462.26 29.16,116.67 102.83,351.16 105.21,458.53l883.2 131.54 -354.84 -941.78c-39.34,-109.21 -87.54,-199.6 -114.95,-317.25l-303.04 110.37c-109.85,36.39 -200.13,69.09 -317.08,96.33z"/>
    <path class="fil0" d="M112.74 2574.43c63.97,-42.84 60.95,-80.52 128.31,-134.78 46.04,-37.1 106.06,-81.36 154.11,-108.98 501,-288.03 1983.31,-505.62 2386.35,-770.6 191.52,-125.93 235.8,-263.02 187.54,-470.16 -50.19,36.77 -67.96,92.97 -116.97,146.11 -45.59,49.45 -90.49,84.36 -146.63,116.44 -118.49,67.71 -238.08,113.56 -387.32,157.63 -464.2,137.09 -1421.97,340.34 -1719.74,460.06 -250.16,100.57 -485.63,257.83 -485.63,604.28z"/>
    <path class="fil0" d="M263.08 2048.27c269.82,-180.68 215.34,-179 622.29,-298.48 240.9,-70.73 513.83,-126.45 753.27,-186.31 462.47,-115.62 1321.12,-230.67 1198.86,-755.45 -61.88,22.41 -18.94,-3.54 -58.25,54.51 -58.61,86.52 -42.59,95.01 -175.24,181.79 -207.72,135.92 -837.12,276.34 -1093.36,334.78 -304.72,69.51 -843.49,172.97 -1094.25,333.9 -116.44,74.73 -153.32,146.73 -153.32,335.25z"/>
    <path class="fil0" d="M-0 2969.05l883.19 -131.54c1.49,-66.97 127.88,-573.31 150.34,-620.11 -212.23,0 -739.18,209.15 -900.08,434.11 -40.88,57.16 -49.14,86.91 -74.5,150.99 -23.94,60.48 -43.61,100.71 -58.94,166.55z"/>
   </g>
   <path class="fil0" d="M10119.85 2442.27c0,324.21 400.86,174.08 507.37,319.45 -99.09,55.66 -364.87,2.98 -488.58,-56.38l0 225.49c246.88,20.55 157.14,37.58 507.37,37.58 296.24,0 380.04,-344.73 19.61,-433.01 -83.26,-20.4 -181.23,-36.3 -263.9,-55.56l0 -37.58c76,0 169.68,-4.88 243.56,0.74 81.44,6.19 140.29,34.93 226.23,36.85 0,-198.84 72.31,-244.29 -451,-244.29 -149.21,0 -300.66,63.64 -300.66,206.71z"/>
   <path class="fil0" d="M11134.59 2235.56l-150.34 0 0 206.71 150.34 0c0,467.53 -42.16,526.15 338.24,526.15 282.46,0 244.28,-94.48 244.28,-206.7 0,-105.25 -17.93,-18.79 -244.28,-18.79 -85.1,0 -56.38,-96.39 -56.38,-300.66l319.45 0c0,-253.29 53.69,-206.71 -319.45,-206.71 0,-270.38 19.74,-262.8 -81.21,-254.79 -222.85,17.69 -179.94,17.42 -183.3,121.83 -2.76,85.85 -1.63,65.4 -17.37,132.96z"/>
   <path class="fil0" d="M6399.15 1183.24c0,347 233.29,377.66 488.58,206.7 2.6,116.83 -10.55,93.96 281.87,93.96l0 -714.07 -281.87 0 0 394.62c0,78.18 -225.5,211.58 -225.5,-112.75l0 -281.87 -263.08 0 0 413.41z"/>
   <path class="fil0" d="M9180.28 1089.28c0,188.76 65.98,357.86 281.87,375.83l0 37.58c-56.27,15.02 -195.53,109.42 -225.5,150.34 320.65,74.7 231.02,187.44 469.79,-169.13 126.85,0 146.7,-14.85 244.29,-37.58l0 -225.49c-344.97,165.52 -616.59,26.23 -470.43,-207.34 80.15,-128.08 399.21,-5.29 470.43,0.63l0 -206.7c-197.15,-94.6 -770.45,-120.44 -770.45,281.87z"/>
   <path class="fil0" d="M9142.7 1991.27l-112.75 0c0,276.66 -35.19,244.28 -187.91,244.28l0 206.71 150.33 0c0,471.37 -28.6,526.15 338.24,526.15 89.86,0 184.22,-27.54 244.29,-56.38l0 -206.7c-342.82,79.87 -300.67,82.87 -300.67,-263.08l319.46 0 0 -206.71 -319.46 0 0 -263.08c-58.78,4.89 -66.76,18.79 -131.53,18.79z"/>
   <path class="fil0" d="M6267.61 2968.42c439.77,0 293.42,100.97 518.13,-459.03 10.82,-26.95 91.53,-234.04 90.65,-241.35 -5.7,-48.04 -40.82,-34.09 -118.29,-33.86 -56.83,0.16 -113.98,1.38 -171.05,1.38 -31.98,137.31 -144,431.26 -150.33,507.37l-37.58 0c-9.46,-113.62 -120.89,-381 -150.34,-507.37 -438.19,0 -307.82,-98.78 -55.19,637.73 17.69,51.55 11.25,95.13 73.99,95.13z"/>
   <path class="fil0" d="M7301.14 1089.28c0,465.4 432.42,435.79 770.45,357.04l0 -225.49c-344.97,165.52 -616.59,26.23 -470.43,-207.34 80.15,-128.08 399.21,-5.29 470.43,0.63l0 -206.7c-197.15,-94.6 -770.45,-120.44 -770.45,281.87z"/>
   <path class="fil0" d="M9706.44 2291.93l0 620.11c0,83.49 87.72,56.38 281.88,56.38l0 -732.86c-194.16,0 -281.88,-27.12 -281.88,56.38z"/>
   <path class="fil0" d="M10157.43 412.79l0 225.49c323.74,-171.3 227.08,0 488.58,0 101.51,0 141.3,-40.56 206.7,-75.16l0 -206.71c-104.37,27.86 -20.22,56.38 -206.7,56.38 -177.37,0 -237.36,-132.93 -488.58,0z"/>
   <path class="fil0" d="M9706.44 1953.69c0,227.49 -44.62,187.91 281.88,187.91l0 -244.28c-194.16,0 -281.88,-27.12 -281.88,56.38z"/>
  </g>
 </g>
</svg>
